<svg preserveAspectRatio="xMidYMid meet" overflow="visible" style="display: block;" viewBox="0 0 13.5 10.5" fill="none" xmlns="http://www.w3.org/2000/svg">
<g id="Group">
<path id="Vector" fill-rule="evenodd" clip-rule="evenodd" d="M0 0.75C0 0.335786 0.335786 0 0.75 0H12.75C13.1642 0 13.5 0.335786 13.5 0.75C13.5 1.16421 13.1642 1.5 12.75 1.5H0.75C0.335786 1.5 0 1.16421 0 0.75ZM0 3.75C0 3.33579 0.335786 3 0.75 3H8.25C8.66421 3 9 3.33579 9 3.75C9 4.16421 8.66421 4.5 8.25 4.5H0.75C0.335786 4.5 0 4.16421 0 3.75ZM0 6.75C0 6.33579 0.335786 6 0.75 6H12.75C13.1642 6 13.5 6.33579 13.5 6.75C13.5 7.16421 13.1642 7.5 12.75 7.5H0.75C0.335786 7.5 0 7.16421 0 6.75ZM0 9.75C0 9.33579 0.335786 9 0.75 9H8.25C8.66421 9 9 9.33579 9 9.75C9 10.1642 8.66421 10.5 8.25 10.5H0.75C0.335786 10.5 0 10.1642 0 9.75Z" fill="var(--fill-0, #545454)"/>
</g>
</svg>
