<svg preserveAspectRatio="xMidYMid meet" overflow="visible" style="display: block;" viewBox="0 0 13.2 10.8002" fill="none" xmlns="http://www.w3.org/2000/svg">
<g id="Group">
<path id="Vector" d="M11.6661 5.58088C11.6661 5.58088 10.827 4.15445 11.843 2.29126C12.7045 0.71 12.7045 0.397652 12.5754 0.248367C12.4492 0.0990697 11.9777 -0.348743 11.2508 0.522036C10.524 1.39281 10.524 1.39558 10.524 1.39558C10.524 1.39558 8.24809 4.16274 7.96745 6.13098C7.68682 8.09922 7.80747 10.8 10.5015 10.8C13.1956 10.8 13.1956 7.85039 13.1956 7.85039C13.1956 7.85039 13.3612 6.37971 11.6661 5.58083L11.6661 5.58088ZM3.80284 5.58088C3.80284 5.58088 2.96375 4.15445 3.9797 2.29126C4.84125 0.710001 4.84125 0.397652 4.71215 0.248368C4.58589 0.0990704 4.11443 -0.348743 3.38757 0.522036C2.66073 1.39558 2.66073 1.39558 2.66073 1.39558C2.66073 1.39558 0.384821 4.16274 0.104185 6.13098C-0.176452 8.09922 -0.0586527 10.8 2.63548 10.8C5.32962 10.8 5.32954 7.85039 5.32954 7.85039C5.32954 7.85039 5.49788 6.37971 3.80291 5.58083L3.80284 5.58088Z" fill="var(--fill-0, #545454)"/>
</g>
</svg>
