<svg preserveAspectRatio="xMidYMid meet" overflow="visible" style="display: block;" viewBox="0 0 18 18" fill="none" xmlns="http://www.w3.org/2000/svg">
<g id="Icon / Edit / Bold">
<path id="B" d="M4.16142 2.25H8.17818C9.92031 2.25 11.2346 2.50239 12.1211 3.00718C13.0075 3.51197 13.4508 4.38304 13.4508 5.62038C13.4508 6.13748 13.3584 6.60534 13.1737 7.02394C12.9952 7.43639 12.7336 7.77804 12.3889 8.04891C12.0441 8.31361 11.6194 8.49213 11.1146 8.58447V8.67681C11.6378 8.76915 12.1026 8.93228 12.5089 9.16621C12.9213 9.40014 13.2445 9.73564 13.4785 10.1727C13.7185 10.6098 13.8386 11.1761 13.8386 11.8718C13.8386 12.6966 13.6416 13.3984 13.2476 13.9771C12.8598 14.5557 12.3027 14.9959 11.5763 15.2975C10.856 15.5992 10.0003 15.75 9.00923 15.75H4.16142V2.25ZM6.37757 7.81806H8.50137C9.50479 7.81806 10.2004 7.65492 10.5882 7.32866C10.9761 7.00239 11.17 6.52531 11.17 5.8974C11.17 5.25718 10.9391 4.79549 10.4774 4.51231C10.0219 4.22914 9.29549 4.08755 8.29822 4.08755H6.37757V7.81806ZM6.37757 9.60944V13.894H8.71375C9.74795 13.894 10.4744 13.6939 10.893 13.2938C11.3116 12.8936 11.5209 12.3519 11.5209 11.6686C11.5209 11.25 11.4254 10.8868 11.2346 10.579C11.0499 10.2712 10.7452 10.0342 10.3205 9.86799C9.89569 9.69562 9.32319 9.60944 8.60294 9.60944H6.37757Z" fill="var(--fill-0, #545454)"/>
</g>
</svg>
