<svg preserveAspectRatio="xMidYMid meet" overflow="visible" style="display: block;" viewBox="0 0 4.16673 2.5" fill="none" xmlns="http://www.w3.org/2000/svg">
<g id="Group">
<path id="Vector" d="M0.315072 0H3.85172C3.91428 0.000273284 3.97536 0.0198674 4.02723 0.0563049C4.07911 0.0927423 4.11945 0.144387 4.14315 0.204708C4.16685 0.265028 4.17285 0.331316 4.16039 0.39519C4.14793 0.459064 4.11757 0.517654 4.07315 0.563553L2.30799 2.40252C2.27859 2.43341 2.2436 2.45792 2.20505 2.47465C2.1665 2.49139 2.12515 2.5 2.08339 2.5C2.04163 2.5 2.00029 2.49139 1.96174 2.47465C1.92319 2.45792 1.8882 2.43341 1.8588 2.40252L0.0936359 0.563553C0.0492154 0.517654 0.0188562 0.459064 0.00639721 0.39519C-0.00606177 0.331316 -6.11085e-05 0.265028 0.0236406 0.204708C0.0473423 0.144387 0.0876806 0.0927423 0.139555 0.0563049C0.191429 0.0198674 0.252509 0.000273284 0.315072 0V0Z" fill="var(--fill-0, #545454)"/>
</g>
</svg>
