<svg preserveAspectRatio="xMidYMid meet" overflow="visible" style="display: block;" viewBox="0 0 18 18" fill="none" xmlns="http://www.w3.org/2000/svg">
<g id="Icon / Edit / clear formatting">
<path id="Vector" d="M7.308 1.125H14.5564C14.9147 1.1249 15.2679 1.21038 15.5865 1.37434C15.9051 1.53829 16.18 1.77597 16.3882 2.06761C16.5964 2.35924 16.732 2.69638 16.7836 3.05098C16.8352 3.40558 16.8013 3.76737 16.6849 4.10625L12.8194 15.3562C12.6671 15.7994 12.3802 16.184 11.9988 16.4562C11.6175 16.7285 11.1606 16.8749 10.692 16.875H3.4425C3.08417 16.8751 2.73099 16.7896 2.41237 16.6257C2.09375 16.4617 1.81889 16.224 1.61068 15.9324C1.40246 15.6408 1.26691 15.3036 1.21531 14.949C1.16371 14.5944 1.19754 14.2326 1.314 13.8938L5.1795 2.64375C5.33186 2.20041 5.61888 1.81573 6.00049 1.54345C6.38209 1.27116 6.83921 1.12487 7.308 1.125ZM4.2885 9L2.68762 14.2987C2.63666 14.4669 2.62581 14.6447 2.65593 14.8178C2.68606 14.991 2.75632 15.1547 2.8611 15.2957C2.96587 15.4368 3.10224 15.5514 3.25928 15.6303C3.41631 15.7092 3.58964 15.7502 3.76537 15.75H10.6256C10.8672 15.7502 11.1025 15.6727 11.2966 15.5288C11.4907 15.385 11.6333 15.1825 11.7034 14.9512L13.5 9H4.2885Z" fill="var(--fill-0, #545454)"/>
</g>
</svg>
