<svg preserveAspectRatio="xMidYMid meet" overflow="visible" style="display: block;" viewBox="0 0 17.4588 13.5" fill="none" xmlns="http://www.w3.org/2000/svg">
<g id="Group 3">
<path id="Vector" d="M3.375 10.125L2.25 13.5H0L4.5 0H6.75L11.25 13.5H9L7.875 10.125H3.375ZM3.74963 9H7.50037L5.625 3.375L3.74963 9Z" fill="var(--fill-0, #545454)"/>
<path id="a" d="M14.6426 5.89307C15.5703 5.89307 16.2705 6.09848 16.7432 6.50931C17.2203 6.92013 17.4588 7.56067 17.4588 8.43092V13.3675H16.3522L16.054 12.3272H16.001C15.7934 12.5922 15.5791 12.8109 15.3583 12.9832C15.1374 13.1554 14.8812 13.2835 14.5896 13.3675C14.3025 13.4558 13.9513 13.5 13.5361 13.5C13.0987 13.5 12.7078 13.4205 12.3632 13.2615C12.0186 13.098 11.747 12.8506 11.5482 12.5193C11.3494 12.188 11.25 11.7683 11.25 11.2603C11.25 10.5049 11.5305 9.93729 12.0915 9.55738C12.657 9.17748 13.5096 8.96765 14.6493 8.92789L15.9215 8.8815V8.49718C15.9215 7.98917 15.8022 7.62693 15.5637 7.41048C15.3296 7.19402 14.9982 7.08579 14.5698 7.08579C14.2031 7.08579 13.8475 7.1388 13.5029 7.24482C13.1584 7.35084 12.8226 7.48116 12.4957 7.63577L11.9921 6.53581C12.35 6.34586 12.7564 6.19125 13.2114 6.07198C13.6708 5.9527 14.1479 5.89307 14.6426 5.89307ZM15.9149 9.86219L14.9673 9.89532C14.1898 9.92183 13.6443 10.0544 13.3306 10.2929C13.017 10.5314 12.8602 10.8583 12.8602 11.2736C12.8602 11.6358 12.9684 11.9009 13.1849 12.0687C13.4013 12.2322 13.6863 12.3139 14.0397 12.3139C14.5786 12.3139 15.0248 12.1615 15.3782 11.8567C15.736 11.5475 15.9149 11.0947 15.9149 10.4983V9.86219Z" fill="var(--fill-0, #545454)"/>
</g>
</svg>
