<svg preserveAspectRatio="xMidYMid meet" overflow="visible" style="display: block;" viewBox="0 0 18 18" fill="none" xmlns="http://www.w3.org/2000/svg">
<g id="Icon / Edit / Insert link">
<path id="Vector" d="M10.9597 9.97988L14.8804 6.06038C15.2703 5.67041 15.4894 5.1415 15.4894 4.59C15.4894 4.0385 15.2703 3.50959 14.8804 3.11963C14.4904 2.72966 13.9615 2.51058 13.41 2.51058C12.8585 2.51058 12.3296 2.72966 11.9396 3.11963L8.02125 7.04025C7.94491 6.50774 7.99361 5.96477 8.1635 5.45434C8.33338 4.94392 8.61977 4.48006 9 4.0995L10.9597 2.13975C11.6096 1.4899 12.491 1.12482 13.41 1.12482C14.329 1.12482 15.2104 1.4899 15.8602 2.13975C16.5101 2.7896 16.8752 3.67098 16.8752 4.59C16.8752 5.50902 16.5101 6.3904 15.8602 7.04025L13.9005 9C13.52 9.38043 13.0562 9.66703 12.5458 9.83711C12.0354 10.0072 11.4923 10.0561 10.9597 9.97988ZM9.981 10.9597C10.057 11.4924 10.008 12.0355 9.83772 12.546C9.66744 13.0564 9.38063 13.5202 9 13.9005L7.04025 15.8602C6.3904 16.5101 5.50902 16.8752 4.59 16.8752C3.67098 16.8752 2.7896 16.5101 2.13975 15.8602C1.4899 15.2104 1.12482 14.329 1.12482 13.41C1.12482 12.491 1.4899 11.6096 2.13975 10.9597L4.0995 9C4.47995 8.61957 4.94376 8.33297 5.45419 8.16289C5.96463 7.99281 6.50765 7.94393 7.04025 8.02013L3.11963 11.9396C2.92653 12.1327 2.77336 12.362 2.66886 12.6142C2.56436 12.8665 2.51058 13.1369 2.51058 13.41C2.51058 13.6831 2.56436 13.9535 2.66886 14.2058C2.77336 14.458 2.92653 14.6873 3.11963 14.8804C3.31272 15.0735 3.54195 15.2266 3.79424 15.3311C4.04653 15.4356 4.31693 15.4894 4.59 15.4894C4.86307 15.4894 5.13347 15.4356 5.38576 15.3311C5.63805 15.2266 5.86728 15.0735 6.06038 14.8804L9.981 10.9597ZM11.9396 6.06038C12.2096 6.33038 12.2096 6.76913 11.9396 7.03913L7.04025 11.9396C6.97695 12.0081 6.90047 12.0631 6.81539 12.1014C6.73032 12.1396 6.63841 12.1603 6.54516 12.1621C6.45191 12.164 6.35924 12.147 6.27271 12.1122C6.18618 12.0774 6.10756 12.0255 6.04158 11.9596C5.97559 11.8937 5.92358 11.8151 5.88868 11.7286C5.85377 11.6421 5.83669 11.5495 5.83844 11.4562C5.8402 11.363 5.86076 11.271 5.89889 11.1859C5.93703 11.1008 5.99195 11.0243 6.06038 10.9609L10.9597 6.06038C11.2297 5.79038 11.6685 5.79038 11.9396 6.06038Z" fill="var(--fill-0, #545454)"/>
</g>
</svg>
