<svg preserveAspectRatio="xMidYMid meet" overflow="visible" style="display: block;" viewBox="0 0 18 18" fill="none" xmlns="http://www.w3.org/2000/svg">
<g id="Icon / Edit / Unordered list">
<path id="Vector" d="M5.625 14.625V12.375H16.875V14.625H5.625ZM5.625 10.125V7.875H16.875V10.125H5.625ZM5.625 5.625V3.375H16.875V5.625H5.625ZM2.25 5.625C1.95163 5.625 1.66548 5.50647 1.4545 5.29549C1.24353 5.08452 1.125 4.79837 1.125 4.5C1.125 4.20163 1.24353 3.91548 1.4545 3.7045C1.66548 3.49353 1.95163 3.375 2.25 3.375C2.54837 3.375 2.83452 3.49353 3.0455 3.7045C3.25647 3.91548 3.375 4.20163 3.375 4.5C3.375 4.79837 3.25647 5.08452 3.0455 5.29549C2.83452 5.50647 2.54837 5.625 2.25 5.625ZM2.25 10.125C1.95163 10.125 1.66548 10.0065 1.4545 9.79549C1.24353 9.58452 1.125 9.29837 1.125 9C1.125 8.70163 1.24353 8.41548 1.4545 8.20451C1.66548 7.99353 1.95163 7.875 2.25 7.875C2.54837 7.875 2.83452 7.99353 3.0455 8.20451C3.25647 8.41548 3.375 8.70163 3.375 9C3.375 9.29837 3.25647 9.58452 3.0455 9.79549C2.83452 10.0065 2.54837 10.125 2.25 10.125ZM2.25 14.625C1.95163 14.625 1.66548 14.5065 1.4545 14.2955C1.24353 14.0845 1.125 13.7984 1.125 13.5C1.125 13.2016 1.24353 12.9155 1.4545 12.7045C1.66548 12.4935 1.95163 12.375 2.25 12.375C2.54837 12.375 2.83452 12.4935 3.0455 12.7045C3.25647 12.9155 3.375 13.2016 3.375 13.5C3.375 13.7984 3.25647 14.0845 3.0455 14.2955C2.83452 14.5065 2.54837 14.625 2.25 14.625Z" fill="var(--fill-0, #545454)"/>
</g>
</svg>
