<svg preserveAspectRatio="xMidYMid meet" overflow="visible" style="display: block;" viewBox="0 0 18 18" fill="none" xmlns="http://www.w3.org/2000/svg">
<g id="Icon / Edit / Underline">
<path id="Vector" d="M3.375 2.25H14.625V7.875C14.625 9.36684 14.0324 10.7976 12.9775 11.8525C11.9226 12.9074 10.4918 13.5 9 13.5C7.50816 13.5 6.07742 12.9074 5.02252 11.8525C3.96763 10.7976 3.375 9.36684 3.375 7.875V2.25ZM5.625 2.25V7.875C5.625 8.77011 5.98058 9.62855 6.61351 10.2615C7.24645 10.8944 8.10489 11.25 9 11.25C9.89511 11.25 10.7536 10.8944 11.3865 10.2615C12.0194 9.62855 12.375 8.77011 12.375 7.875V2.25H5.625ZM3.375 14.625H14.625V15.75H3.375V14.625Z" fill="var(--fill-0, #545454)"/>
</g>
</svg>
